<svg viewBox="0 0 520 196" xmlns="http://www.w3.org/2000/svg" font-family="Inter, sans-serif" font-size="11" fill="#26262b"><rect x="150" y="14" width="12" height="12" rx="2" fill="#2a78d6"/><text x="168" y="24">Fixed</text><rect x="216" y="14" width="12" height="12" rx="2" fill="#eb6834"/><text x="234" y="24">Not fixed</text><rect x="306" y="14" width="12" height="12" rx="2" fill="#4a3aa7"/><text x="324" y="24">Made worse, or came back</text><text x="140" y="67" text-anchor="end">Original board (THA1)</text><rect x="150.0" y="52" width="12.8" height="22" rx="3" fill="#2a78d6"/><rect x="164.8" y="52" width="5.4" height="22" rx="3" fill="#eb6834"/><text x="178.2" y="67" fill="#6b6b76">3 owners</text><text x="150" y="87" fill="#6b6b76" font-size="10">2 fixed, 1 not fixed</text><text x="140" y="119" text-anchor="end">Newer board (P301)</text><rect x="150.0" y="104" width="42.4" height="22" rx="3" fill="#2a78d6"/><text x="171.2" y="119" text-anchor="middle" fill="#ffffff" font-weight="600">6</text><rect x="194.4" y="104" width="57.2" height="22" rx="3" fill="#eb6834"/><text x="223.0" y="119" text-anchor="middle" fill="#ffffff" font-weight="600">8</text><rect x="253.6" y="104" width="5.4" height="22" rx="3" fill="#4a3aa7"/><text x="267.0" y="119" fill="#6b6b76">15 owners</text><text x="150" y="139" fill="#6b6b76" font-size="10">1 worse or came back</text><text x="140" y="171" text-anchor="end">Board not stated</text><rect x="150.0" y="156" width="212.6" height="22" rx="3" fill="#2a78d6"/><text x="256.3" y="171" text-anchor="middle" fill="#ffffff" font-weight="600">29</text><rect x="364.6" y="156" width="72.0" height="22" rx="3" fill="#eb6834"/><text x="400.6" y="171" text-anchor="middle" fill="#ffffff" font-weight="600">10</text><rect x="438.6" y="156" width="12.8" height="22" rx="3" fill="#4a3aa7"/><text x="459.4" y="171" fill="#6b6b76">41 owners</text><text x="150" y="191" fill="#6b6b76" font-size="10">2 worse or came back</text></svg>
